<?xml version="1.0" encoding="UTF-8"?>
<svg width="146" height="167" viewBox="0 0 146 167" fill="none" xmlns="http://www.w3.org/2000/svg">
<path d="M3 153C5.8551 154.959 8.41867 157.481 10.2804 160.377C10.6533 160.958 10.2806 160.563 10.8096 160.986C11.6647 161.67 12.5619 163.617 13.8096 162.986C16.1474 161.804 18.2281 159.63 20.775 158.975C21.3331 158.832 22.793 158.216 23.3096 157.986C24.1213 157.626 24.9342 157.121 25.8096 156.986" stroke="#FEE440" stroke-width="6" stroke-linecap="round"/>
<path d="M142 3C142 26.8172 144.145 48.8042 125.776 67.1738C114.286 78.6636 104.445 77.5 88.9999 77.5C81.2532 77.5 68.2602 78 60.4999 78C52.9513 78 43.6862 82.4782 37.9998 87.5C33.2327 91.7099 29.4295 101.139 27.4998 107C25.1117 114.253 17.293 139.477 15.9999 147M15.9999 147C14.8639 153.61 17.2474 140.402 15.9999 147ZM15.9999 147C13.2645 161.466 13 163 13 163" stroke="#FEE440" stroke-width="6" stroke-linecap="round"/></svg>
