<svg width="48" height="46" viewBox="0 0 48 46" fill="none" xmlns="http://www.w3.org/2000/svg">
<path d="M13.0601 22.89C18.7842 22.89 40.7242 23 35 23" stroke="#FEE440" stroke-width="3" stroke-linecap="round"/>
<path d="M12.5298 22.7574C13.7172 21.6492 15.0668 20.7313 16.2722 19.6412C17.5341 18.5 18.8544 17.3449 20.0146 16.0977C20.4286 15.6527 20.7989 15.0757 21.348 14.8011" stroke="#FEE440" stroke-width="3" stroke-linecap="round"/>
<path d="M12.5962 23.2215C14.5331 25.1585 16.6654 26.917 18.615 28.8425C19.1731 29.3937 19.7931 29.8787 20.3831 30.3969C20.6658 30.6453 21.2494 30.9804 21.4144 31.3104" stroke="#FEE440" stroke-width="3" stroke-linecap="round"/>
<path d="M7.00695 7.47015C8.22378 5.94912 8.86431 5.37987 10.5928 4.47015C11.5476 3.51536 14.2832 2.84193 15.5717 2.63218C19.2028 2.04107 22.8722 1.81506 26.547 2.16801C30.3529 2.53354 34.4916 3.00676 37.7545 5.1402C40.1376 6.69833 41.9874 8.38746 43.5267 10.7926C45.336 13.6196 45.6629 16.7321 46.0872 20.0012C46.5464 23.54 46.3509 27.5766 45.0839 30.9316C43.952 33.9291 41.8123 36.8936 39.4765 39.0921C37.4402 41.0086 34.3886 42.1024 31.7952 43.0001C29.2249 43.8898 26.7591 44.6225 24.0166 44.3177C21.5517 44.0439 19.0553 43.2823 16.7021 42.5209C12.9537 41.3082 9.61702 39.4984 7.00695 36.5017C5.53545 34.8122 4.22729 33.1995 3.09144 31.2685C2.4764 30.223 2.10862 26.7246 2.09294 25.4702C2.07523 24.0536 1.89281 20.8699 2.09277 19.4702C2.6482 15.5822 2.79474 15.6895 4.09277 11.9702C4.5792 10.5764 6.07814 8.63116 7.00695 7.47015Z" stroke="#FEE440" stroke-width="3" stroke-linecap="round"/>
</svg>
