<?xml version="1.0" encoding="UTF-8"?>
<svg width="352" height="32" viewBox="0 0 352 32" fill="none" xmlns="http://www.w3.org/2000/svg">
<path d="M3 21.3348C16.9685 21.3348 29.1572 17.8486 42.3337 13.6561C49.6631 11.324 48.4874 12.5281 49.8556 18.5141C50.9578 23.3359 51.3038 30.1879 57.5343 27.4464C64.6734 24.3052 70.6267 18.1072 76.9661 13.6561C81.4163 10.5315 88.7779 3 94.6741 3C97.4632 3 100.427 15.2813 102.431 17.7305C109 25.7593 130.985 9.97517 137.769 7.23111C143.618 4.86517 147.412 2.10647 150.305 8.71983C154.726 18.8249 164.252 18.2845 174.673 15.4583C180.339 13.9219 210.835 -0.369956 213.459 6.91769C215.738 13.2495 217.663 14.9498 224.663 14.1263C230.191 13.476 249.356 1.48218 254.046 6.44757C256.093 8.61545 255.613 17.6522 259.139 18.4357C271.405 21.1615 282.339 8.38516 292.596 3.94025C299.815 0.812221 299.845 10.2952 300.51 15.615C302.496 31.5083 348.541 -2.97099 348.541 10.0519" stroke="#FEE440" stroke-width="6" stroke-linecap="round"/></svg>
