<?xml version="1.0" encoding="UTF-8"?>
<svg width="93" height="39" viewBox="0 0 93 39" fill="none" xmlns="http://www.w3.org/2000/svg">
<path d="M2 34.9401L5.53977 32.4878L8.71178 29.7343L10.1278 28.144C11.6335 26.4531 13.0116 24.6527 14.2507 22.7577V22.7577C15.5211 20.8147 16.6418 18.7779 17.6031 16.6648L18.3131 15.104L20.1851 10.5577L20.7316 8.77703C21.0222 7.83001 21.1699 6.84494 21.1699 5.85433V5.34354C21.1699 5.08376 21.1465 4.82451 21.0999 4.56895L20.98 3.91208C20.8943 3.44221 20.662 3.01154 20.3165 2.68183V2.68183C20.0647 2.44163 19.761 2.26277 19.4288 2.15915L19.3323 2.12904C19.0583 2.04356 18.7724 2.00243 18.4854 2.0072L18.3403 2.00961C17.6372 2.02129 16.9529 2.23889 16.3721 2.63549L16.2004 2.75281C15.7778 3.04137 15.4103 3.40318 15.1153 3.82116L14.5491 4.62308C14.0918 5.27088 13.7153 5.97214 13.4281 6.71128L12.7572 8.43794L11.7918 11.5356L10.6885 16.4402L10.0449 20.9146L9.58523 25.6041L9.4424 29.2131C9.41516 29.9015 9.4833 30.5902 9.64487 31.2599L9.7413 31.6596C9.94115 32.4879 10.3252 33.2604 10.8649 33.9198L11.0545 34.1515C11.4791 34.6703 12.0171 35.0847 12.6271 35.3628V35.3628C13.1975 35.6229 13.8172 35.7575 14.4442 35.7575H14.5383C15.0034 35.7575 15.4661 35.6901 15.9119 35.5573L16.2387 35.46C16.9174 35.2579 17.5623 34.9562 18.1524 34.5646L18.9225 34.0535C19.5005 33.67 20.0477 33.2419 20.5591 32.7732L21.0678 32.3071C21.6865 31.7401 22.2588 31.1243 22.7789 30.4657V30.4657M22.7789 30.4657L26.3647 16.9135M22.7789 30.4657L22.6743 30.9224C22.5616 31.4149 22.5597 31.9262 22.6687 32.4195V32.4195C22.7418 32.75 22.8636 33.0678 23.0303 33.3624L23.25 33.7507C23.485 34.1662 23.8044 34.5277 24.1876 34.8122V34.8122C24.6799 35.1775 25.2613 35.4038 25.871 35.4672L26.279 35.5096C26.7625 35.5599 27.2508 35.5381 27.7279 35.4451L27.8303 35.4252C28.7392 35.2479 29.5902 34.8487 30.3074 34.2629L31.0547 33.6525C31.5127 33.2784 31.9347 32.8621 32.3149 32.4092L32.5165 32.1691C33.0114 31.5797 33.452 30.9468 33.8331 30.2781L34.3636 29.3471M34.3636 29.3471L37.7655 16.9135M34.3636 29.3471L33.9039 30.8959L33.8916 30.9727C33.8087 31.4901 33.8283 32.0188 33.9494 32.5286V32.5286C34.0711 33.0413 34.293 33.5248 34.6023 33.9514L34.7919 34.2128C34.9348 34.41 35.1029 34.5877 35.2918 34.7414V34.7414C35.7917 35.1482 36.4164 35.3703 37.0609 35.3703H37.0935C37.4466 35.3703 37.7967 35.3057 38.1265 35.1797L38.8104 34.9185C39.5187 34.6479 40.1772 34.2619 40.7593 33.7761L41.5811 33.0901L44.7071 29.6483M44.7071 29.6483L47.6033 16.9135M44.7071 29.6483L43.4199 35.3703M44.7071 29.6483L47.3252 23.4256C47.5093 22.988 47.7653 22.5843 48.0827 22.2313L50.0398 20.0541L51.5942 18.7232C51.9965 18.3787 52.4436 18.0904 52.9232 17.8659L53.3824 17.6511C53.6953 17.5046 54.0314 17.4138 54.3754 17.3826V17.3826C54.9654 17.3292 55.5578 17.453 56.077 17.7382L56.3323 17.8785C57.0209 18.2567 57.5629 18.8549 57.8717 19.5773L58.4984 21.0437M58.4984 21.0437L54.9127 35.3703M58.4984 21.0437L61.5785 18.8065L63.0275 17.8832C63.4976 17.5837 64.0207 17.377 64.5686 17.2745L64.6775 17.2541C64.9702 17.1993 65.2686 17.1822 65.5656 17.203L65.9255 17.2283C66.5878 17.2747 67.2134 17.5805 67.6619 18.0702V18.0702C68.0918 18.5396 68.3363 19.1595 68.3363 19.796V19.796V19.796C68.3363 20.9673 68.1889 22.134 67.8977 23.2685L66.2392 29.7307C66.1357 30.134 66.0639 30.5448 66.0245 30.9593L65.9713 31.5193C65.924 32.0181 65.9589 32.5214 66.0746 33.0089L66.1992 33.5336C66.3042 33.9758 66.5244 34.3823 66.8374 34.7118L66.9303 34.8096C67.2749 35.1725 67.7333 35.4065 68.2293 35.4728V35.4728C68.5716 35.5186 68.9198 35.4828 69.2457 35.3684L69.857 35.1539C70.58 34.9002 71.2333 34.4803 71.7644 33.928L74.2665 31.3262L76.1054 29.218M76.1054 29.218L76.4141 27.1168C76.5451 26.225 76.7593 25.3474 77.0538 24.4955L77.0902 24.3903C77.4437 23.3675 77.9187 22.3909 78.5049 21.4813L78.6378 21.2752C79.1238 20.5211 79.6967 19.8268 80.3448 19.2065L80.7828 18.7872C81.1874 18.4001 81.6391 18.0654 82.1273 17.7913L82.3563 17.6627C82.9342 17.3382 83.568 17.1254 84.2246 17.0355V17.0355C84.8144 16.9547 85.4137 16.9743 85.9969 17.0934L86.1268 17.1199C87.1181 17.3223 88.0318 17.8012 88.7623 18.5011V18.5011C89.2982 19.0146 89.7216 19.6338 90.0057 20.3194L90.1946 20.7754C90.3635 21.183 90.497 21.6042 90.5938 22.0346L90.8161 23.0227L90.9234 24.1273C90.9744 24.6518 90.9765 25.1799 90.9297 25.7048L90.8161 26.9808L90.654 27.8154C90.5173 28.5191 90.3076 29.2067 90.0283 29.8669V29.8669C89.727 30.5793 89.3465 31.2556 88.894 31.883L88.3337 32.6599L87.2426 33.9286C86.9592 34.2581 86.6468 34.5615 86.3093 34.8353L86.0911 35.0123C85.6579 35.3636 85.1734 35.6465 84.6546 35.8509V35.8509C84.0176 36.1019 83.3391 36.2308 82.6545 36.2308H82.5829C82.0369 36.2308 81.4936 36.1541 80.9689 36.003L80.2509 35.7963C79.6691 35.6287 79.127 35.3459 78.6568 34.9645V34.9645C78.2163 34.6072 77.8472 34.1702 77.5686 33.6762L77.1167 32.875L76.5036 31.3176C76.4834 31.2661 76.4681 31.2127 76.4582 31.1582L76.1054 29.218Z" stroke="#FEE440" stroke-width="3.82904" stroke-linecap="round"/></svg>
