<svg width="190" height="86" viewBox="0 0 190 86" fill="none" xmlns="http://www.w3.org/2000/svg">
<path d="M86.9194 12.4428C76.279 12.4428 62.9999 14.357 62.8483 26.751C62.7935 31.24 61.8077 36.8339 64.8275 40.6474C67.6294 44.1858 73.1246 45.9522 77.291 47.4412C87.3655 51.0417 91.7336 52.0767 91.7336 63.3964C91.7336 77.4603 81.2283 81.241 68.0905 82.6455C63.8188 83.1022 54.9461 83.9085 52.471 79.1457C52.0025 78.244 58.5984 72.1389 58.89 71.8372C72.5498 57.7021 85.8941 43.2867 99.9713 29.5303C102.843 26.7235 111.081 20.8911 111.9 16.5603C112.433 13.7371 112.734 10.9794 113.13 8.11949C113.322 6.73484 113.879 -0.254809 113.879 4.82552C113.879 16.0938 113.407 27.1894 111.953 38.3828C110.901 46.4864 108.837 54.493 108.102 62.6244C107.698 67.0936 108.261 79.9672 106.176 75.9546C102.706 69.2764 110.445 55.2662 113.13 49.8602C120.128 35.7702 129.974 20.2006 142.122 9.5606C143.182 8.63218 147.644 6.28965 147.418 6.4725C139.19 13.1391 130.055 18.619 121.368 24.6923C119.896 25.7211 108.371 31.2394 114.039 32.8757C122.248 35.2452 130.285 39.5736 137.95 43.2208C138.388 43.4293 147.694 47.4469 147.418 48.1103C147.034 49.0346 142.964 48.5342 142.604 48.5221C127.809 48.0226 113.344 47.5271 98.5805 49.5C78.3928 52.1978 58.8368 57.5884 39.5262 63.7052C28.5789 67.1728 17.1751 70.2924 6.62904 74.8223C-7.78292 81.0129 25.3656 74.6858 25.6184 74.6165C51.3256 67.5639 76.3775 57.7996 101.255 48.4706C123.555 40.1081 145.793 31.4787 167.424 21.6042C168.981 20.8934 192.055 8.49467 185.985 16.972C175.338 31.8427 164.031 46.2667 155.923 62.6758C154.612 65.3289 152.393 73.7455 152.393 70.8078" stroke="#FEE440" stroke-width="5" stroke-linecap="round"/>
</svg>
