<svg width="463" height="124" viewBox="0 0 463 124" fill="none" xmlns="http://www.w3.org/2000/svg">
<path d="M34.0476 21.8721C34.5987 22.2854 34.8742 23.0776 34.8742 24.2487C34.8742 26.3152 34.0132 27.3485 32.2911 27.3485H31.8777C31.8777 27.3485 31.3611 27.4174 30.3278 27.5552C29.3634 27.624 28.2613 27.7274 27.0213 27.8651C25.7814 28.0029 24.5759 28.1751 23.4049 28.3818C22.3027 28.5195 21.6483 28.6573 21.4417 28.7951V29.8284C21.4417 30.5861 21.3728 31.6194 21.235 32.9282C21.0972 34.1681 21.0284 35.3047 21.0284 36.338C21.0284 36.6824 21.0284 37.0268 21.0284 37.3713C21.0972 37.7157 21.1661 38.0601 21.235 38.4045C20.9595 39.2312 20.8217 40.6089 20.8217 42.5376C20.8906 45.1553 20.9595 47.1185 21.0284 48.4273C21.0972 49.6672 21.3039 50.5972 21.6483 51.2172C21.9927 51.8371 22.5783 52.3193 23.4049 52.6637C24.2315 53.0082 25.437 53.5248 27.0213 54.2137C28.6746 54.7647 29.5012 55.7291 29.5012 57.1068C29.5012 58.0023 29.1568 58.7601 28.4679 59.38C27.848 60 27.0213 60.31 25.9881 60.31C25.5059 60.31 24.7826 60.2067 23.8182 60C22.8538 59.7933 21.855 59.5178 20.8217 59.1734C19.8573 58.7601 18.9618 58.3123 18.1352 57.8301C17.3086 57.279 16.7575 56.6935 16.4819 56.0736C15.6553 54.2825 15.0009 52.5604 14.5187 50.9072C14.0365 49.1851 13.7954 47.394 13.7954 45.5341C13.7954 43.6054 13.8299 42.1588 13.8988 41.1944C13.9676 40.23 14.0365 39.4723 14.1054 38.9212C14.1743 38.3701 14.2432 37.8879 14.3121 37.4746C14.3809 36.9924 14.4154 36.338 14.4154 35.5114C14.4154 34.9603 14.3809 34.4092 14.3121 33.8581C14.3121 33.2382 14.3121 32.6526 14.3121 32.1016C14.3121 31.3438 14.3121 30.7239 14.3121 30.2417C14.3809 29.6906 14.4498 29.2428 14.5187 28.8984C12.6588 29.0362 9.90342 29.5873 6.25251 30.5516C5.15035 30.5516 4.18596 30.2761 3.35934 29.725C2.53272 29.1739 2.11941 28.3818 2.11941 27.3485C2.11941 27.073 2.22274 26.6941 2.42939 26.2119C2.63605 25.7297 2.98047 25.2819 3.46267 24.8686C4.01375 24.3864 4.73704 24.0076 5.63255 23.732C6.59694 23.3876 7.76798 23.2154 9.14568 23.2154H9.76565C11.2811 23.2154 13.0377 22.9054 15.0354 22.2854C15.0354 22.2166 15.0354 21.941 15.0354 21.4588C15.1042 20.9077 15.1387 20.3222 15.1387 19.7023C15.2076 19.0134 15.242 18.359 15.242 17.739C15.3109 17.1191 15.3453 16.6713 15.3453 16.3958V15.8791C15.4142 15.1214 15.552 14.0537 15.7586 12.676C15.9653 11.2294 16.2753 9.81726 16.6886 8.43956C17.1019 6.99297 17.6185 5.75304 18.2385 4.71976C18.9274 3.68649 19.754 3.16985 20.7184 3.16985C22.5783 3.16985 23.7149 3.99647 24.1282 5.64971C24.1282 5.78748 24.0249 6.26968 23.8182 7.0963C23.6804 7.92292 23.5082 8.85287 23.3016 9.88614C23.0949 10.9194 22.8882 11.9182 22.6816 12.8826C22.4749 13.847 22.3716 14.467 22.3716 14.7425C22.3716 14.8803 22.3372 15.2592 22.2683 15.8791C22.1994 16.4991 22.1305 17.188 22.0616 17.9457C22.0616 18.7034 22.0272 19.4612 21.9583 20.2189C21.8894 20.9766 21.855 21.5277 21.855 21.8721C21.7172 21.8721 22.6472 21.7688 24.6448 21.5622C24.9892 21.5622 25.2992 21.5622 25.5748 21.5622C25.9192 21.4933 26.2292 21.4588 26.5047 21.4588C26.7114 21.4588 26.8836 21.4933 27.0213 21.5622C27.1591 21.5622 27.2969 21.5622 27.4347 21.5622C28.0546 21.4933 28.6401 21.4588 29.1912 21.4588C29.7423 21.3899 30.2589 21.3555 30.7411 21.3555C32.2566 21.3555 33.3588 21.5277 34.0476 21.8721ZM78.962 56.6935C78.6865 57.4513 78.1354 58.1745 77.3088 58.8634C76.551 59.5522 75.7933 59.8967 75.0356 59.8967C74.1401 59.8967 73.4512 59.5522 72.969 58.8634C72.4868 58.1057 72.1424 57.1757 71.9357 56.0736C71.7291 54.9025 71.5913 53.5937 71.5224 52.1471C71.4535 50.7005 71.4191 49.2539 71.4191 47.8073C71.1436 47.1185 71.0058 46.223 71.0058 45.1208C71.0058 44.6386 71.0058 44.122 71.0058 43.5709C71.0747 42.951 71.1091 42.4343 71.1091 42.021C71.1091 39.61 70.9025 37.6813 70.4891 36.2347C70.0758 34.7192 69.5248 33.5482 68.8359 32.7215C68.2159 31.8949 67.5271 31.3438 66.7694 31.0683C66.0116 30.7927 65.2883 30.655 64.5995 30.655C63.3595 30.655 62.0852 30.8961 60.7764 31.3783C59.5364 31.8605 58.3654 32.4115 57.2632 33.0315C56.2299 33.6515 55.3344 34.3059 54.5767 34.9947C53.8879 35.6147 53.4401 36.0969 53.2334 36.4413C53.0268 37.1991 52.8546 38.3012 52.7168 39.7478C52.6479 41.1255 52.579 42.7443 52.5102 44.6042C52.4413 46.4641 52.3724 48.4962 52.3035 50.7005C52.2346 52.836 52.1657 55.0403 52.0968 57.3135C51.8902 58.6223 50.8225 59.2767 48.8937 59.2767C47.3093 59.2767 46.2761 58.7256 45.7939 57.6235C45.3117 56.4524 45.0706 54.4892 45.0706 51.7338C45.0706 51.0449 45.0706 50.5628 45.0706 50.2872C45.1395 50.0117 45.2083 49.5295 45.2772 48.8406C45.415 48.1518 45.5528 47.0841 45.6905 45.6375C45.8283 44.122 46.0005 41.7455 46.2072 38.5079C46.2761 36.9924 46.3449 35.6491 46.4138 34.4781C46.4827 33.3071 46.4827 32.2738 46.4138 31.3783C46.4138 30.6205 46.4138 30.0006 46.4138 29.5184C46.4138 29.0362 46.3794 28.6229 46.3105 28.2784C46.3794 28.2096 46.4483 27.624 46.5172 26.5219C46.586 25.3508 46.6894 24.0765 46.8271 22.6988C46.9649 21.3211 47.1027 20.0122 47.2404 18.7723C47.3782 17.4635 47.5504 16.568 47.7571 16.0858C47.7571 15.7414 47.7226 15.4314 47.6538 15.1558C47.6538 14.8803 47.6538 14.5703 47.6538 14.2259C47.6538 13.1237 47.6882 11.7805 47.7571 10.1961C47.8949 8.54288 48.136 6.99297 48.4804 5.54639C48.8248 4.0998 49.3414 2.85987 50.0303 1.82659C50.7191 0.79332 51.6835 0.276682 52.9235 0.276682C54.9211 0.276682 55.9544 1.3444 56.0233 3.47983C55.8855 5.4775 55.6444 7.78515 55.3 10.4028C54.9556 13.0204 54.5078 16.4647 53.9567 20.7355C53.6123 21.7688 53.4401 23.6631 53.4401 26.4185V28.2784C53.5779 28.2096 53.8879 28.0029 54.3701 27.6585C54.8522 27.3141 55.4033 26.9352 56.0233 26.5219C56.7121 26.0397 57.4354 25.6264 58.1932 25.2819C58.9509 24.8686 59.6742 24.5931 60.363 24.4553C61.9474 24.1798 63.6006 24.042 65.3228 24.042C68.6293 24.042 71.2469 25.0064 73.1757 26.9352C75.1733 28.7951 76.6199 31.9294 77.5154 36.338C77.5843 37.9912 77.6532 39.3345 77.7221 40.3678C77.8598 41.401 77.9632 42.5721 78.0321 43.8809C78.1698 45.1208 78.3076 46.7052 78.4454 48.634C78.652 50.5628 78.8242 53.2493 78.962 56.6935ZM131.897 49.6672C132.862 50.2872 133.344 51.0449 133.344 51.9405C133.344 52.9048 132.862 53.8348 131.897 54.7303C130.933 55.6258 130.003 56.0736 129.107 56.0736C126.972 55.3158 125.112 53.9037 123.528 51.8371C122.012 49.7706 120.979 47.5318 120.428 45.1208C119.946 46.1541 119.36 47.4629 118.671 49.0473C118.051 50.5628 117.225 52.0093 116.191 53.387C115.158 54.7647 113.884 55.9702 112.368 57.0035C110.853 57.9679 108.958 58.4501 106.685 58.4501C105.514 58.4501 103.964 58.2434 102.036 57.8301C99.9001 56.3147 98.2124 55.1092 96.9725 54.2137C95.8014 53.2493 94.9059 52.3538 94.286 51.5271C93.666 50.7005 93.2871 49.7706 93.1494 48.7373C93.0116 47.704 92.9427 46.3263 92.9427 44.6042C92.9427 43.1576 93.1494 41.5733 93.5627 39.8511C94.0449 38.0601 94.6993 36.2691 95.5259 34.4781C96.3525 32.6871 97.3858 30.9305 98.6257 29.2084C99.8656 27.4863 101.312 25.9019 102.965 24.4553C105.996 23.422 108.373 22.6643 110.095 22.1821C111.817 21.6999 112.988 21.4588 113.608 21.4588C114.986 19.8745 116.432 19.0823 117.948 19.0823C118.775 19.0823 119.498 19.5645 120.118 20.5289C120.738 21.4933 121.289 22.7676 121.771 24.352C122.322 25.8675 122.735 27.5552 123.011 29.415C123.355 31.2749 123.631 33.066 123.838 34.7881C124.044 35.1325 124.217 35.5458 124.354 36.028C124.492 36.4413 124.63 36.9924 124.768 37.6813L125.388 40.5744C125.801 42.5721 126.593 44.2942 127.764 45.7408C128.935 47.1874 130.313 48.4962 131.897 49.6672ZM117.328 36.028C117.19 35.408 116.949 34.3748 116.605 32.9282C116.26 31.4816 115.813 29.6217 115.261 27.3485C114.435 27.5552 113.539 27.6585 112.575 27.6585C111.611 27.5896 110.577 27.7618 109.475 28.1751C108.373 28.5884 107.167 29.3462 105.859 30.4483C104.619 31.5505 103.344 33.2726 102.036 35.6147C100.382 38.6456 99.5557 41.8488 99.5557 45.2242C99.969 46.1197 100.348 46.9118 100.692 47.6007C101.037 48.2207 101.45 48.8062 101.932 49.3573C102.483 49.8395 103.138 50.3217 103.895 50.8038C104.653 51.286 105.618 51.8027 106.789 52.3538C107.822 52.1471 108.683 51.906 109.372 51.6305C110.13 51.3549 110.784 50.9416 111.335 50.3905C111.886 49.7706 112.403 49.0128 112.885 48.1173C113.367 47.2218 113.953 46.0508 114.641 44.6042C116.432 40.6089 117.328 37.7501 117.328 36.028ZM176.103 49.0473V49.8739C176.103 50.2183 176.103 50.9072 176.103 51.9405C176.172 52.9048 176.103 53.9037 175.896 54.937C175.689 55.9702 175.311 56.9002 174.76 57.7268C174.277 58.5534 173.485 58.9667 172.383 58.9667C170.385 58.9667 169.18 58.1745 168.767 56.5902C168.835 56.0391 168.87 55.4536 168.87 54.8336C168.939 54.1448 168.973 53.4215 168.973 52.6637C168.973 51.3549 168.904 49.8739 168.767 48.2207C168.698 46.5674 168.594 44.742 168.457 42.7443L167.63 37.7846C167.354 36.1313 166.907 34.857 166.287 33.9615C165.667 32.9971 164.978 32.3082 164.22 31.8949C163.462 31.4127 162.67 31.1372 161.844 31.0683C161.086 30.9305 160.431 30.8616 159.88 30.8616C157.814 30.8616 156.057 31.4816 154.611 32.7215C153.164 33.8926 151.959 36.2347 150.994 39.7478C150.925 40.9188 150.822 42.1932 150.684 43.5709C150.615 44.9486 150.443 46.4641 150.168 48.1173C150.305 50.5972 150.512 53.7659 150.788 57.6235C150.788 59.7589 149.582 60.8266 147.171 60.8266C146.207 60.8266 145.449 60.5511 144.898 60C144.416 59.4489 144.037 58.7601 143.761 57.9334C143.555 57.0379 143.417 56.108 143.348 55.1436C143.279 54.1792 143.245 53.2837 143.245 52.4571C143.245 51.6994 143.279 50.9416 143.348 50.1839C143.417 49.4261 143.52 48.634 143.658 47.8073L144.588 37.1646C144.657 36.4069 144.76 35.5803 144.898 34.6848C145.105 33.7892 145.346 32.7904 145.621 31.6883C145.415 30.1728 144.795 28.3818 143.761 26.3152V25.9019C143.761 25.1442 144.106 24.4209 144.795 23.732C145.552 23.0432 146.413 22.6988 147.378 22.6988C148.342 22.6988 149.134 23.0432 149.754 23.732C150.374 24.352 151.166 25.4197 152.131 26.9352C152.682 26.453 153.577 26.0052 154.817 25.5919C156.126 25.1097 157.607 24.8686 159.26 24.8686C162.98 24.8686 166.183 25.6608 168.87 27.2452C171.556 28.8295 173.279 31.6538 174.036 35.718C174.243 37.3024 174.415 38.6112 174.553 39.6445C174.691 40.6089 174.828 41.5388 174.966 42.4343C175.173 43.2609 175.345 44.1909 175.483 45.2242C175.689 46.1886 175.896 47.4629 176.103 49.0473ZM224.216 52.3538C224.284 52.5604 224.319 52.9393 224.319 53.4904C224.319 55.8325 223.251 57.0035 221.116 57.0035C220.289 57.0035 219.462 56.5557 218.636 55.6602C217.809 54.6959 216.914 53.5248 215.949 52.1471C214.985 50.7005 213.848 49.1506 212.539 47.4974C211.231 45.7752 209.681 44.122 207.89 42.5376C206.305 41.5044 204.445 40.1611 202.31 38.5079L199.83 39.7478C199.83 40.1611 199.796 40.7122 199.727 41.401C199.658 42.0899 199.555 42.8132 199.417 43.5709C199.348 44.2598 199.279 44.9831 199.21 45.7408C199.141 46.4296 199.107 46.9807 199.107 47.394C199.107 48.1518 199.107 48.5651 199.107 48.634C199.107 48.7029 199.107 48.7029 199.107 48.634C199.107 48.4962 199.107 48.4273 199.107 48.4273C199.107 48.4273 199.141 48.7373 199.21 49.3573C199.279 49.9772 199.348 51.0794 199.417 52.6637C199.486 54.1792 199.589 56.418 199.727 59.38C199.727 61.0333 198.521 61.8599 196.11 61.8599C194.526 61.8599 193.527 61.0333 193.114 59.38C192.701 57.6579 192.494 55.0403 192.494 51.5271C192.494 48.634 192.597 46.0508 192.804 43.7776C193.011 41.5044 193.114 39.5067 193.114 37.7846V34.7881C193.114 34.3748 193.148 33.7548 193.217 32.9282C193.355 32.0327 193.493 31.1027 193.631 30.1383C193.768 29.1051 193.872 28.1062 193.941 27.1418C194.078 26.1775 194.147 25.3508 194.147 24.662V23.4221C194.147 23.2154 194.251 22.2854 194.457 20.6322C194.664 18.9101 194.939 16.9124 195.284 14.6392C195.697 12.366 196.179 10.0584 196.73 7.71626C197.281 5.37417 197.901 3.51428 198.59 2.13658C198.866 1.44773 199.624 1.1033 200.863 1.1033C203.137 1.1033 204.273 1.96436 204.273 3.68649C204.273 4.30646 204.17 5.20196 203.963 6.373C203.757 7.54405 203.412 8.95619 202.93 10.6094C202.448 13.0204 202.103 15.1214 201.897 16.9124C201.69 18.6345 201.587 19.9778 201.587 20.9422C201.449 21.6999 201.242 23.0432 200.967 24.972C200.76 26.9007 200.485 29.415 200.14 32.5149C200.898 32.0327 201.725 31.4127 202.62 30.655C203.584 29.8284 204.721 28.8984 206.03 27.8651C207.408 26.8319 209.026 25.6953 210.886 24.4553C212.815 23.2154 215.157 21.9066 217.913 20.5289H218.429C219.187 20.5289 219.945 20.8389 220.702 21.4588C221.46 22.0788 221.839 22.8365 221.839 23.732C221.839 24.2831 221.701 24.7653 221.426 25.1786C221.219 25.523 220.771 25.9019 220.082 26.3152C219.462 26.7285 218.532 27.2796 217.293 27.9685C216.053 28.6573 214.434 29.5873 212.436 30.7583C212.367 30.8961 212.057 31.1716 211.506 31.5849C211.024 31.9294 210.473 32.3082 209.853 32.7215C209.302 33.1348 208.751 33.5137 208.2 33.8581C207.718 34.1337 207.442 34.3059 207.373 34.3748C208.2 34.7192 208.82 35.0292 209.233 35.3047C209.715 35.5803 210.266 36.0625 210.886 36.7513C211.575 37.4402 212.539 38.4734 213.779 39.8511C215.088 41.1599 217.051 43.0543 219.669 45.5341C220.289 46.3608 220.978 47.3596 221.736 48.5306C222.493 49.6328 223.32 50.9072 224.216 52.3538ZM315.625 28.4851C315.556 29.8628 315.384 31.1027 315.108 32.2049C314.833 33.2382 314.419 34.3059 313.868 35.408C313.386 36.5102 312.801 37.7157 312.112 39.0245C311.492 40.2644 310.803 41.8144 310.045 43.6742C309.632 46.3608 308.84 48.8406 307.669 51.1138C306.566 53.387 305.327 55.5569 303.949 57.6235C302.64 59.69 301.331 61.6877 300.022 63.6165C298.714 65.6141 297.715 67.6462 297.026 69.7128C295.924 71.2283 295.063 72.5371 294.443 73.6392C293.823 74.8103 293.237 75.9124 292.686 76.9457C292.135 77.979 291.481 79.0123 290.723 80.0455C289.965 81.1477 288.863 82.4221 287.416 83.8687C287.003 84.0064 286.59 84.0753 286.176 84.0753C285.281 84.0753 284.42 83.7998 283.593 83.2487C282.836 82.7665 282.457 82.1465 282.457 81.3888C282.457 80.9755 282.594 80.5966 282.87 80.2522L289.586 70.2294C289.793 69.6095 290.206 68.714 290.826 67.5429C291.446 66.3719 292.135 65.0975 292.893 63.7198C293.651 62.3421 294.374 60.9988 295.063 59.69C295.752 58.3123 296.199 57.2102 296.406 56.3835C295.924 56.108 295.338 55.6602 294.649 55.0403C293.961 54.3514 293.237 53.6626 292.479 52.9737C291.722 52.216 290.964 51.5271 290.206 50.9072C289.517 50.2183 288.863 49.7361 288.243 49.4606C287.003 47.7385 286.004 46.5674 285.247 45.9475C284.558 45.2586 283.834 44.5698 283.077 43.8809C282.319 43.1921 281.423 42.1932 280.39 40.8844C279.426 39.5067 278.014 37.2679 276.154 34.1681C276.085 34.0303 276.05 33.8237 276.05 33.5481C276.05 32.6526 276.36 31.7916 276.98 30.965C277.669 30.1383 278.496 29.725 279.46 29.725C280.149 29.725 281.01 30.2417 282.043 31.2749C283.077 32.3082 284.076 33.4793 285.04 34.7881C286.073 36.028 287.003 37.2335 287.83 38.4045C288.656 39.5067 289.173 40.1956 289.38 40.4711C289.793 40.8844 290.413 41.5733 291.24 42.5376C292.135 43.502 293.099 44.5009 294.133 45.5341C295.166 46.5674 296.165 47.5318 297.129 48.4273C298.162 49.3228 298.989 49.9083 299.609 50.1839C300.16 49.495 300.883 47.9796 301.779 45.6375C302.743 43.2265 303.742 40.7466 304.775 38.1979C305.533 36.2691 306.36 34.3403 307.255 32.4115C308.22 30.4139 308.771 28.6229 308.909 27.0385C310.08 26.2808 311.216 25.9019 312.318 25.9019C314.247 25.9019 315.349 26.763 315.625 28.4851ZM354.337 57.6235C353.028 58.519 349.55 59.5522 343.901 60.7233L339.561 59.8967C339.01 59.69 338.011 59.1734 336.565 58.3468C335.187 57.5201 333.741 56.3147 332.225 54.7303C330.778 53.1459 329.47 51.1483 328.299 48.7373C327.196 46.3263 326.645 43.4676 326.645 40.1611C326.645 37.4746 327.403 35.0981 328.919 33.0315C330.434 30.8961 332.742 28.6229 335.841 26.2119C337.495 25.7986 339.114 25.5919 340.698 25.5919C345.313 25.5919 349.55 27.1418 353.407 30.2417C356.714 34.7881 358.367 39.7822 358.367 45.2242C358.367 49.495 357.024 53.6281 354.337 57.6235ZM344.934 32.4115C343.901 31.9294 342.799 31.6883 341.628 31.6883C340.801 31.6883 339.906 31.8949 338.941 32.3082C338.046 32.7215 337.185 33.3415 336.358 34.1681C335.6 34.9947 334.98 36.0625 334.498 37.3713C334.016 38.6112 333.775 40.0922 333.775 41.8144C333.775 43.1921 333.947 44.5698 334.292 45.9475C334.705 47.3252 335.29 48.5995 336.048 49.7706C336.875 50.9416 337.908 51.906 339.148 52.6637C340.388 53.3526 341.869 53.697 343.591 53.697C345.175 53.697 346.966 53.2837 348.964 52.4571C350.686 50.3217 351.547 47.7729 351.547 44.8109C351.547 38.2668 349.343 34.1337 344.934 32.4115ZM406.608 22.1821C406.677 22.9399 406.711 23.6631 406.711 24.352C406.78 25.0408 406.815 25.7641 406.815 26.5219C406.815 28.1751 406.746 29.5873 406.608 30.7583C406.47 31.8605 406.298 33.1348 406.091 34.5814C405.885 35.9591 405.609 37.6813 405.265 39.7478C404.989 41.7455 404.714 44.432 404.438 47.8073C404.438 48.014 404.404 48.2207 404.335 48.4273C404.335 48.5651 404.335 48.7373 404.335 48.944C404.335 50.0461 404.438 51.2516 404.645 52.5604L405.058 56.3835C405.058 58.1745 403.921 59.0701 401.648 59.0701C400.684 59.0701 399.961 58.829 399.478 58.3468C398.996 57.7957 398.652 57.1757 398.445 56.4869C398.238 55.7291 398.135 54.9714 398.135 54.2137C398.135 53.387 398.135 52.6982 398.135 52.1471C398.135 51.4583 398.17 50.9416 398.238 50.5972C396.585 52.2504 395.104 53.5592 393.795 54.5236C392.555 55.4191 391.384 56.0736 390.282 56.4869C389.249 56.9002 388.216 57.1413 387.182 57.2102C386.218 57.279 385.185 57.3135 384.083 57.3135C380.363 57.3135 377.504 56.2802 375.506 54.2137C373.578 52.1471 372.613 49.0817 372.613 45.0175C372.613 44.5353 372.613 43.9842 372.613 43.3643C372.613 42.7443 372.648 42.021 372.717 41.1944C372.648 40.9188 372.613 40.4711 372.613 39.8511C372.613 38.9556 372.648 38.129 372.717 37.3713C372.785 36.5446 372.923 35.5803 373.13 34.4781C373.405 33.3071 373.75 31.8949 374.163 30.2417C374.645 28.5195 375.265 26.3152 376.023 23.6287C376.781 22.871 377.642 22.4921 378.606 22.4921C379.502 22.4921 380.259 22.7332 380.879 23.2154C381.499 23.6976 381.809 24.4209 381.809 25.3853C381.809 25.7297 381.672 26.453 381.396 27.5552C381.189 28.6573 380.948 29.8628 380.673 31.1716C380.397 32.4804 380.122 33.7892 379.846 35.0981C379.639 36.338 379.536 37.3024 379.536 37.9912V38.5079C379.398 39.4723 379.261 40.3678 379.123 41.1944C379.054 42.021 379.019 42.7099 379.019 43.2609C379.019 45.3964 379.433 47.2563 380.259 48.8406C381.155 50.3561 382.808 51.1138 385.219 51.1138C386.804 51.1138 388.285 50.7694 389.662 50.0806C391.04 49.3917 392.28 48.5651 393.382 47.6007C394.484 46.5674 395.449 45.4653 396.275 44.2942C397.102 43.0543 397.722 41.9177 398.135 40.8844C398.273 39.5756 398.514 38.0257 398.858 36.2347C399.203 34.3748 399.651 32.2393 400.202 29.8284C400.133 29.415 400.098 29.0017 400.098 28.5884C400.098 28.1751 400.098 27.7962 400.098 27.4518C400.098 26.6252 400.133 25.7986 400.202 24.972C400.339 24.0765 400.512 23.3187 400.718 22.6988C400.994 22.0099 401.373 21.4588 401.855 21.0455C402.337 20.5633 402.991 20.3222 403.818 20.3222C405.334 20.3222 406.264 20.9422 406.608 22.1821ZM444.246 4.40978C444.315 4.7542 444.349 5.06419 444.349 5.33973C444.418 5.61527 444.452 5.89081 444.452 6.16635C444.521 6.51077 444.452 6.95853 444.246 7.50961C444.108 8.06069 443.97 8.68066 443.833 9.36951L442.593 14.5359C442.455 14.6737 442.317 15.0525 442.179 15.6725C442.042 16.2924 441.904 16.9813 441.766 17.739C441.628 18.4279 441.525 19.0823 441.456 19.7023C441.387 20.2533 441.353 20.5289 441.353 20.5289C441.422 20.8733 441.456 21.1833 441.456 21.4588C441.456 21.6655 441.456 21.9066 441.456 22.1821C441.456 22.4577 441.456 22.7332 441.456 23.0087C441.456 23.2843 441.422 23.5598 441.353 23.8354L440.939 25.9019C440.526 27.6929 440.319 29.3806 440.319 30.965C440.319 31.7227 440.354 32.2738 440.423 32.6182L440.009 36.648C439.803 37.6813 439.562 38.7145 439.286 39.7478C439.011 40.7122 438.494 41.1944 437.736 41.1944C436.841 41.1944 436.117 40.9188 435.566 40.3678C435.015 39.8167 434.602 39.1623 434.326 38.4045C434.051 37.5779 433.844 36.7169 433.706 35.8214C433.638 34.9258 433.603 34.1681 433.603 33.5481C433.603 32.8593 433.638 32.3427 433.706 31.9982C433.638 31.0338 433.569 30.1728 433.5 29.415C433.5 28.5884 433.5 27.8307 433.5 27.1418C433.5 25.3508 433.603 24.0765 433.81 23.3187C433.741 22.9743 433.672 22.6299 433.603 22.2854C433.603 21.941 433.603 21.5966 433.603 21.2522C433.603 19.0479 433.741 16.9469 434.016 14.9492C434.292 12.8826 434.636 11.0572 435.05 9.47283C435.463 7.81959 435.876 6.51078 436.29 5.54639C436.703 4.51311 437.013 3.92758 437.22 3.78982C437.84 3.16985 438.976 2.85987 440.629 2.85987C442.489 2.85987 443.695 3.37651 444.246 4.40978ZM442.076 55.8669C442.076 56.9691 441.559 57.8301 440.526 58.4501C439.562 59.0701 438.666 59.38 437.84 59.38C436.393 59.38 435.256 59.2078 434.43 58.8634C433.603 58.519 432.949 58.1057 432.466 57.6235C432.053 57.0724 431.778 56.5213 431.64 55.9702C431.502 55.3503 431.433 54.7647 431.433 54.2137C431.433 52.9737 431.881 51.6994 432.776 50.3905C433.672 49.0817 434.843 48.4273 436.29 48.4273C436.772 48.4273 437.323 48.4962 437.943 48.634C438.632 48.7029 439.286 48.9784 439.906 49.4606C440.526 49.9428 441.043 50.7005 441.456 51.7338C441.869 52.6982 442.076 54.0759 442.076 55.8669Z" fill="#FF6B6B"/>
<path d="M4 110.834C22.3788 110.834 38.416 106.247 55.7528 100.731C65.3965 97.6622 63.8495 99.2464 65.6498 107.122C67.0999 113.467 67.5551 122.482 75.7529 118.875C85.1461 114.742 92.9791 106.587 101.32 100.731C107.175 96.6195 116.861 86.71 124.619 86.71C128.289 86.71 132.189 102.869 134.825 106.091C143.468 116.655 172.394 95.8875 181.32 92.277C189.016 89.164 194.008 85.5343 197.815 94.2358C203.632 107.531 216.165 106.82 229.877 103.102C237.332 101.08 277.457 82.276 280.908 91.8646C283.908 100.196 286.44 102.433 295.651 101.349C302.923 100.494 328.141 84.7129 334.311 91.2461C337.005 94.0984 336.373 105.988 341.012 107.019C357.15 110.606 371.536 93.7954 385.033 87.9471C394.53 83.8314 394.57 96.3085 395.445 103.308C398.059 124.219 458.641 78.8537 458.641 95.9884" stroke="#FEE440" stroke-width="7.89443" stroke-linecap="round"/>
</svg>
